<svg width="6" height="10" viewBox="0 0 6 10" fill="none" xmlns="http://www.w3.org/2000/svg">
<path d="M1.46875 9.80078L5.46875 5.80078C5.60417 5.67578 5.67188 5.52474 5.67188 5.34766C5.67188 5.16016 5.60417 4.9987 5.46875 4.86328L1.46875 0.863281C1.34375 0.738281 1.1875 0.675781 1 0.675781C0.8125 0.675781 0.65625 0.738281 0.53125 0.863281C0.395833 0.998698 0.328125 1.16016 0.328125 1.34766C0.328125 1.52474 0.395833 1.67578 0.53125 1.80078L4.0625 5.33203L0.53125 8.86328C0.395833 8.9987 0.328125 9.16016 0.328125 9.34766C0.328125 9.52474 0.395833 9.67578 0.53125 9.80078C0.65625 9.9362 0.8125 10.0039 1 10.0039C1.1875 10.0039 1.34375 9.9362 1.46875 9.80078Z" fill="#111111"/>
</svg>
