<svg width="6" height="11" viewBox="0 0 6 11" fill="none" xmlns="http://www.w3.org/2000/svg">
<path d="M5.77754 9.66675L1.80488 5.69409L5.77754 1.72144C5.92988 1.58081 6.00605 1.41089 6.00605 1.21167C6.00605 1.00073 5.92988 0.819092 5.77754 0.666748C5.63691 0.526123 5.46113 0.455811 5.25019 0.455811C5.03926 0.455811 4.86348 0.526123 4.72285 0.666748L0.222851 5.16675C0.070507 5.31909 -0.00566483 5.50073 -0.00566483 5.71167C-0.00566483 5.91089 0.070507 6.08081 0.222851 6.22144L4.72285 10.7214C4.86348 10.8738 5.03926 10.95 5.25019 10.95C5.46113 10.95 5.63691 10.8738 5.77754 10.7214C5.92988 10.5808 6.00605 10.4109 6.00605 10.2117C6.00605 10.0007 5.92988 9.81909 5.77754 9.66675Z" fill="#111111"/>
</svg>
