<svg width="6" height="11" viewBox="0 0 6 11" fill="none" xmlns="http://www.w3.org/2000/svg">
<path d="M1.27754 10.7214C1.13691 10.8738 0.961132 10.95 0.750195 10.95C0.539257 10.95 0.363476 10.8738 0.222851 10.7214C0.070507 10.5808 -0.00566483 10.4109 -0.00566483 10.2117C-0.00566483 10.0007 0.070507 9.81909 0.222851 9.66675L4.19551 5.69409L0.222851 1.72144C0.070507 1.58081 -0.00566483 1.41089 -0.00566483 1.21167C-0.00566483 1.00073 0.070507 0.819092 0.222851 0.666748C0.363476 0.526123 0.539257 0.455811 0.750195 0.455811C0.961132 0.455811 1.13691 0.526123 1.27754 0.666748L5.77754 5.16675C5.92988 5.31909 6.00605 5.50073 6.00605 5.71167C6.00605 5.91089 5.92988 6.08081 5.77754 6.22144L1.27754 10.7214Z" fill="white"/>
</svg>
